HIERARCHY
ROOT ui
{
	 OFFSET 0 0 0
	 CHANNELS 3 XPosition YPosition Z Position
	 EndSite
	 {
	 OFFSET 0 -1 0
	 }
}
ROOT li
{
	 OFFSET 0 0 0
	 CHANNELS 3 XPosition YPosition Z Position
	 EndSite
	 {
	 OFFSET 0 -1 0
	 }
}
ROOT ul
{
	 OFFSET 0 0 0
	 CHANNELS 3 XPosition YPosition Z Position
	 EndSite
	 {
	 OFFSET 0 -1 0
	 }
}
ROOT ll
{
	 OFFSET 0 0 0
	 CHANNELS 3 XPosition YPosition Z Position
	 EndSite
	 {
	 OFFSET 0 -1 0
	 }
}
ROOT tt
{
	 OFFSET 0 0 0
	 CHANNELS 3 XPosition YPosition Z Position
	 EndSite
	 {
	 OFFSET 0 -1 0
	 }
}
ROOT tb
{
	 OFFSET 0 0 0
	 CHANNELS 3 XPosition YPosition Z Position
	 EndSite
	 {
	 OFFSET 0 -1 0
	 }
}
ROOT td
{
	 OFFSET 0 0 0
	 CHANNELS 3 XPosition YPosition Z Position
	 EndSite
	 {
	 OFFSET 0 -1 0
	 }
}
ROOT v
{
	 OFFSET 0 0 0
	 CHANNELS 3 XPosition YPosition Z Position
	 EndSite
	 {
	 OFFSET 0 -1 0
	 }
}
ROOT bn
{
	 OFFSET 0 0 0
	 CHANNELS 3 XPosition YPosition Z Position
	 EndSite
	 {
	 OFFSET 0 -1 0
	 }
}
MOTION
Frames: 32
Frame Time: 0.002
0.0039231030941009526	0.0017954620122909546	0		0.45269366455078125	-2.304845703125	0		-0.9776478881835937	0.24770274353027344	0		-0.54907421875	-2.77277099609375	0		1.7337423095703124	-0.42166360473632813	0		3.201603271484375	-0.24445147705078124	0		4.4665751953125	-0.05519350814819336	0		5.9285380859375	0.4384026184082031	0		-0.42405056762695315	5.8594072265625	0		
0.003796499967575073	0.0016350950002670288	0		0.459358154296875	-2.31509716796875	0		-0.9777630615234375	0.24758802795410156	0		-0.59722607421875	-2.762420166015625	0		1.732444091796875	-0.4368935241699219	0		3.222484375	-0.24297331237792968	0		4.47525341796875	-0.07465155029296874	0		5.94258837890625	0.40788644409179686	0		-0.4540956726074219	5.84057177734375	0		
0.005587007999420166	-0.006545260906219482	0		0.4591074523925781	-2.31528173828125	0		-0.9978565673828125	0.24968312072753907	0		-0.5605125732421875	-2.76392529296875	0		1.7321402587890624	-0.4521447448730469	0		3.21523193359375	-0.25423243713378907	0		4.471060546875	-0.08100785064697266	0		5.93045166015625	0.4263887329101563	0		-0.45975106811523436	5.85649560546875	0		
0.0035404930114746095	0.001316370964050293	0		0.43084475708007813	-2.31518017578125	0		-0.9779915771484375	0.24737896728515624	0		-0.5937501831054688	-2.758712890625	0		1.746728759765625	-0.477556884765625	0		3.192997802734375	-0.26335369873046877	0		4.47092724609375	-0.0814286117553711	0		5.939609375	0.4200882873535156	0		-0.42449603271484376	5.860005859375	0		
0.00341245698928833	0.0011626759767532349	0		0.4415074157714844	-2.321473876953125	0		-0.9730630493164063	0.25123579406738283	0		-0.59101220703125	-2.754859619140625	0		1.6854808349609376	-0.48619219970703126	0		3.218686767578125	-0.27997665405273436	0		4.45964013671875	-0.0967514877319336	0		5.94384814453125	0.4311686096191406	0		-0.45731259155273435	5.8542197265625	0		
0.015303475379943848	0.0028917338848114013	0		0.4452646179199219	-2.317691162109375	0		-0.9691341552734375	0.25511286926269533	0		-0.58324267578125	-2.7470498046875	0		1.7422021484375	-0.4980412902832031	0		3.222694091796875	-0.2653799133300781	0		4.47963818359375	-0.08440335845947265	0		5.94810888671875	0.44741555786132814	0		-0.2756771545410156	5.88922509765625	0		
0.0031505730152130125	8.795300126075745E-4	0		0.47504373168945313	-2.311171875	0		-0.98518603515625	0.26120968627929686	0		-0.596501220703125	-2.7410107421875	0		1.69180810546875	-0.5197745971679687	0		3.213251220703125	-0.2936426696777344	0		4.47238525390625	-0.09577438354492188	0		5.94381689453125	0.4656029968261719	0		-0.41059585571289064	5.87151806640625	0		
0.0030093779563903807	7.544090151786804E-4	0		0.429690673828125	-2.31585693359375	0		-0.9853089599609375	0.2611537475585938	0		-0.56286767578125	-2.744451171875	0		1.7263658447265624	-0.54538427734375	0		3.204111083984375	-0.29189794921875	0		4.47408984375	-0.11023248291015625	0		5.95349951171875	0.41769979858398437	0		-0.41032623291015624	5.871421875	0		
-1.779090017080307E-4	-0.0023255350589752198	0		0.4533172912597656	-2.32125244140625	0		-0.9854463500976562	0.2611116027832031	0		-0.6291075439453125	-2.733825439453125	0		1.6618790283203124	-0.5729390869140625	0		3.217743408203125	-0.3103827209472656	0		4.45987451171875	-0.11551136779785157	0		5.9376962890625	0.417176513671875	0		-0.4100678100585938	5.8713388671875	0		
0.0026765201091766356	5.456129908561707E-4	0		0.43105224609375	-2.314147216796875	0		-0.969669921875	0.2549142913818359	0		-0.5854054565429687	-2.7273466796875	0		1.679607177734375	-0.5783444213867187	0		3.2127255859375	-0.2936540222167969	0		4.4737412109375	-0.1110718994140625	0		5.94557421875	0.45240484619140625	0		-0.4297767028808594	5.87648388671875	0		
0.006502505779266358	0.0034222118854522706	0		0.456662109375	-2.3165361328125	0		-0.9807503051757812	0.2650190124511719	0		-0.625606201171875	-2.70895849609375	0		1.666190185546875	-0.5944013671875	0		3.2102099609375	-0.32093505859375	0		4.47352783203125	-0.11146378326416016	0		5.94906982421875	0.46875006103515626	0		-0.39552157592773435	5.88106884765625	0		
-0.07475579833984375	0.0022335140705108643	0		0.45423089599609373	-2.319607421875	0		-0.9809739990234375	0.2650235595703125	0		-0.600957763671875	-2.702248046875	0		1.695712158203125	-0.6128990478515625	0		3.23817138671875	-0.30051834106445313	0		4.48021337890625	-0.11790475463867188	0		5.9488984375	0.4679381103515625	0		-0.4094709777832031	5.87118505859375	0		
0.001948559045791626	3.5998600721359254E-4	0		0.451778076171875	-2.321657958984375	0		-0.9812371826171875	0.26504443359375	0		-0.64323779296875	-2.685797119140625	0		1.70320703125	-0.6301380615234375	0		3.226611572265625	-0.3246510009765625	0		4.47992529296875	-0.11823894500732422	0		5.94869873046875	0.46718927001953126	0		-0.4103587341308594	5.8721796875	0		
0.0016328519582748413	3.3673900365829466E-4	0		0.4592005310058594	-2.332795166015625	0		-0.9815367431640625	0.26508102416992185	0		-0.5948071899414062	-2.694315185546875	0		1.67783251953125	-0.631991943359375	0		3.227374267578125	-0.3158819885253906	0		4.4845146484375	-0.12658887481689454	0		5.95181396484375	0.41625625610351563	0		-0.43026123046875	5.8773994140625	0		
0.0012894970178604125	3.336319923400879E-4	0		0.435806396484375	-2.32557177734375	0		-0.9618886108398438	0.26291302490234375	0		-0.618133544921875	-2.679033935546875	0		1.727242919921875	-0.6516348876953125	0		3.25173779296875	-0.34133602905273436	0		4.49214208984375	-0.1289273223876953	0		5.95716455078125	0.39130694580078124	0		-0.37912936401367187	5.8908603515625	0		
0.008003546714782714	0.0072732501029968265	0		0.46635232543945315	-2.3239169921875	0		-0.9571948852539063	0.26692108154296873	0		-0.586450439453125	-2.663340576171875	0		1.826809814453125	-0.6558018798828125	0		3.262732666015625	-0.3075980529785156	0		4.49686083984375	-0.12118119812011718	0		5.9642021484375	0.42697515869140623	0		-0.3651000671386719	5.90074072265625	0		
5.525550246238708E-4	3.8778400421142576E-4	0		0.457788330078125	-2.332809326171875	0		-0.982579345703125	0.2652719421386719	0		-0.6198713989257812	-2.657916259765625	0		1.7865008544921874	-0.6473944702148438	0		3.23708251953125	-0.33141049194335936	0		4.5174697265625	-0.12255168914794921	0		5.96028173828125	0.4076997375488281	0		-0.3813316345214844	5.89296923828125	0		
1.7327900230884553E-4	4.434820115566254E-4	0		0.45734262084960936	-2.3327666015625	0		-0.9829511108398438	0.26535562133789065	0		-0.5792955932617188	-2.65529736328125	0		1.773926513671875	-0.663255615234375	0		3.258570556640625	-0.3426900634765625	0		4.5140205078125	-0.1285909423828125	0		5.95636572265625	0.39029693603515625	0		-0.3805543212890625	5.89202490234375	0		
-2.0484100282192231E-4	5.161889791488647E-4	0		0.4279277648925781	-2.332379638671875	0		-0.9833248291015625	0.26544454956054686	0		-0.6086159057617188	-2.645893798828125	0		1.7603717041015625	-0.6780669555664063	0		3.258186767578125	-0.3426711730957031	0		4.52161767578125	-0.1306814422607422	0		5.9597412109375	0.4074540100097656	0		-0.24759915161132812	5.91262646484375	0		
0.0043682618141174315	-0.0044511380195617675	0		0.4654571228027344	-2.340714599609375	0		-0.9637183837890625	0.26331405639648436	0		-0.5978639526367188	-2.633926513671875	0		1.744943603515625	-0.682818603515625	0		3.27596875	-0.32879574584960936	0		4.53022314453125	-0.13270965576171875	0		5.95528369140625	0.426712646484375	0		-0.3670748291015625	5.902037109375	0		
0.0061427998542785646	0.007627277851104736	0		0.4312674560546875	-2.327232421875	0		-0.9640794677734374	0.2634060668945313	0		-0.60200830078125	-2.616787841796875	0		1.7815228271484376	-0.689110595703125	0		3.292357177734375	-0.35185009765625	0		4.53495458984375	-0.12462071990966797	0		5.96287353515625	0.4267767639160156	0		-0.3665012817382812	5.9011240234375	0		
-0.0012756119966506958	8.182039856910705E-4	0		0.45390005493164065	-2.334364013671875	0		-0.9803591918945312	0.26967385864257815	0		-0.5982461547851563	-2.612733154296875	0		1.7510994873046875	-0.6976246948242187	0		3.298156494140625	-0.3397298583984375	0		4.5364609375	-0.1384264678955078	0		5.9589775390625	0.4082746276855469	0		-0.3679649353027344	5.9022392578125	0		
-0.0015954740047454835	9.402130246162414E-4	0		0.45162933349609374	-2.337203857421875	0		-0.984732421875	0.2658058166503906	0		-0.593408203125	-2.6066875	0		1.8086241455078125	-0.7140801391601562	0		3.28877197265625	-0.3463920593261719	0		4.5461455078125	-0.13825521850585937	0		5.97444091796875	0.40843154907226564	0		-0.3684923400878906	5.9023486328125	0		
-0.001890202045440674	0.0010684549808502198	0		0.48732150268554686	-2.34844921875	0		-0.974150146484375	0.255767578125	0		-0.585492919921875	-2.598675537109375	0		1.7961988525390624	-0.7287340698242187	0		3.284438720703125	-0.35106488037109373	0		4.548912109375	-0.1329464569091797	0		5.95854052734375	0.40956246948242186	0		-0.3680755615234375	5.90144873046875	0		
0.002789267063140869	-0.003854624032974243	0		0.44518359375	-2.348830322265625	0		-0.9653435668945313	0.2637436828613281	0		-0.5635654907226563	-2.59481884765625	0		1.7838123779296875	-0.7433665161132812	0		3.31001708984375	-0.36702642822265624	0		4.55356640625	-0.140605712890625	0		5.9776865234375	0.4271806640625	0		-0.35258554077148435	5.91038330078125	0		
0.009632792472839356	0.0032003920078277587	0		0.5000852661132813	-2.351266357421875	0		-0.9605505981445313	0.26775506591796877	0		-0.5973594970703126	-2.570357666015625	0		1.7885648193359376	-0.74916845703125	0		3.32510205078125	-0.33983563232421876	0		4.5624951171875	-0.12626479339599608	0		5.97263720703125	0.4524649658203125	0		-0.3862920837402344	5.903849609375	0		
-0.0025842249393463134	0.0014587479829788208	0		0.46215664672851564	-2.342690673828125	0		-0.9658096923828124	0.2638642578125	0		-0.571275146484375	-2.562555908203125	0		1.82611083984375	-0.7783126220703125	0		3.2977177734375	-0.359162353515625	0		4.5761787109375	-0.13794015502929688	0		5.9752890625	0.43956594848632813	0		-0.403022216796875	5.89612109375	0		
0.002204797983169556	-0.003473078966140747	0		0.491999267578125	-2.360850830078125	0		-0.985966064453125	0.2661198425292969	0		-0.6001219482421875	-2.553171875	0		1.8148582763671874	-0.792921142578125	0		3.311589599609375	-0.35891741943359373	0		4.570947265625	-0.14538546752929687	0		5.96104296875	0.47041989135742185	0		-0.3998284912109375	5.88116748046875	0		
0.002088716983795166	-0.0033609349727630614	0		0.46612417602539064	-2.357419677734375	0		-0.975212646484375	0.25602871704101565	0		-0.557962646484375	-2.548558837890625	0		1.81064208984375	-0.8086058959960938	0		3.322440673828125	-0.3646301574707031	0		4.56492919921875	-0.13680758666992188	0		5.9573095703125	0.4525931396484375	0		-0.39848431396484374	5.87922314453125	0		
-0.0029322710037231444	0.001791018009185791	0		0.46828729248046874	-2.355298828125	0		-0.9702685546875	0.25998577880859375	0		-0.6176312255859375	-2.531880126953125	0		1.810494873046875	-0.8223395385742187	0		3.31156884765625	-0.34811093139648436	0		4.57384619140625	-0.13838380432128905	0		5.96090478515625	0.4726572570800781	0		-0.39810870361328127	5.878275390625	0		
0.006025968074798584	7.813320159912109E-4	0		0.47050885009765625	-2.35219140625	0		-0.9662821044921875	0.26393719482421873	0		-0.550302734375	-2.52055322265625	0		1.8026356201171876	-0.8130022583007812	0		3.319351318359375	-0.3687980041503906	0		4.58382763671875	-0.13797441101074218	0		5.9729248046875	0.45444412231445314	0		-0.4128050537109375	5.86746923828125	0		
0.0019986419677734376	-0.0031095180511474608	0		0.46871356201171877	-2.35505908203125	0		-0.9753753051757813	0.2560065612792969	0		-0.6159443969726562	-2.509856201171875	0		1.8295489501953126	-0.83004345703125	0		3.33655419921875	-0.35359457397460936	0		4.57892724609375	-0.1304239501953125	0		5.97083935546875	0.46597683715820315	0		-0.42844686889648437	5.85765283203125	0		
